<mxfile host="app.diagrams.net" modified="2023-07-22T14:16:28.705Z" agent="5.0 (Windows NT 10.0; Win64; x64) AppleWebKit/537.36 (KHTML, like Gecko) Chrome/114.0.0.0 Safari/537.36" version="20.7.4" etag="fNXi-hVzhSzA8npXuyMQ" type="github">
  <diagram id="0EXZ_DT6oZNPxvhVnRL8" name="Page-1">
    <mxGraphModel dx="1313" dy="716" grid="1" gridSize="10" guides="1" tooltips="1" connect="1" arrows="1" fold="1" page="1" pageScale="1" pageWidth="1200" pageHeight="1920" math="0" shadow="0">
      <root>
        <mxCell id="0" />
        <mxCell id="1" parent="0" />
        <mxCell id="297EgKS4g4oYcpdyhydY-10" style="edgeStyle=orthogonalEdgeStyle;rounded=0;orthogonalLoop=1;jettySize=auto;html=1;fontSize=24;" edge="1" parent="1" source="297EgKS4g4oYcpdyhydY-1" target="297EgKS4g4oYcpdyhydY-3">
          <mxGeometry relative="1" as="geometry" />
        </mxCell>
        <mxCell id="297EgKS4g4oYcpdyhydY-1" value="Административная панель" style="whiteSpace=wrap;html=1;aspect=fixed;" vertex="1" parent="1">
          <mxGeometry x="180" y="80" width="130" height="130" as="geometry" />
        </mxCell>
        <mxCell id="297EgKS4g4oYcpdyhydY-2" value="Создание реферальной ссылки" style="text;html=1;align=center;verticalAlign=middle;resizable=0;points=[];autosize=1;strokeColor=none;fillColor=none;strokeWidth=1;fontSize=24;" vertex="1" parent="1">
          <mxGeometry x="60" y="20" width="380" height="40" as="geometry" />
        </mxCell>
        <mxCell id="297EgKS4g4oYcpdyhydY-11" style="edgeStyle=orthogonalEdgeStyle;rounded=0;orthogonalLoop=1;jettySize=auto;html=1;fontSize=24;" edge="1" parent="1" source="297EgKS4g4oYcpdyhydY-3" target="297EgKS4g4oYcpdyhydY-4">
          <mxGeometry relative="1" as="geometry" />
        </mxCell>
        <mxCell id="297EgKS4g4oYcpdyhydY-12" style="edgeStyle=orthogonalEdgeStyle;rounded=0;orthogonalLoop=1;jettySize=auto;html=1;fontSize=24;" edge="1" parent="1" source="297EgKS4g4oYcpdyhydY-3" target="297EgKS4g4oYcpdyhydY-5">
          <mxGeometry relative="1" as="geometry" />
        </mxCell>
        <mxCell id="297EgKS4g4oYcpdyhydY-3" value="Раздел &quot;Реферальные ссылки&quot;" style="whiteSpace=wrap;html=1;aspect=fixed;" vertex="1" parent="1">
          <mxGeometry x="195" y="230" width="100" height="100" as="geometry" />
        </mxCell>
        <mxCell id="297EgKS4g4oYcpdyhydY-13" style="edgeStyle=orthogonalEdgeStyle;rounded=0;orthogonalLoop=1;jettySize=auto;html=1;fontSize=24;" edge="1" parent="1" source="297EgKS4g4oYcpdyhydY-4" target="297EgKS4g4oYcpdyhydY-6">
          <mxGeometry relative="1" as="geometry" />
        </mxCell>
        <mxCell id="297EgKS4g4oYcpdyhydY-4" value="Создать" style="whiteSpace=wrap;html=1;aspect=fixed;" vertex="1" parent="1">
          <mxGeometry x="295" y="380" width="70" height="70" as="geometry" />
        </mxCell>
        <mxCell id="297EgKS4g4oYcpdyhydY-15" style="edgeStyle=orthogonalEdgeStyle;rounded=0;orthogonalLoop=1;jettySize=auto;html=1;fontSize=24;" edge="1" parent="1" source="297EgKS4g4oYcpdyhydY-5" target="297EgKS4g4oYcpdyhydY-8">
          <mxGeometry relative="1" as="geometry" />
        </mxCell>
        <mxCell id="297EgKS4g4oYcpdyhydY-5" value="Список&lt;br&gt;(Название ссылки, кол-во переходов, команда для удаления)" style="whiteSpace=wrap;html=1;aspect=fixed;" vertex="1" parent="1">
          <mxGeometry x="115" y="380" width="100" height="100" as="geometry" />
        </mxCell>
        <mxCell id="297EgKS4g4oYcpdyhydY-14" style="edgeStyle=orthogonalEdgeStyle;rounded=0;orthogonalLoop=1;jettySize=auto;html=1;fontSize=24;" edge="1" parent="1" source="297EgKS4g4oYcpdyhydY-6" target="297EgKS4g4oYcpdyhydY-7">
          <mxGeometry relative="1" as="geometry" />
        </mxCell>
        <mxCell id="297EgKS4g4oYcpdyhydY-6" value="Указать название ссылке" style="whiteSpace=wrap;html=1;aspect=fixed;" vertex="1" parent="1">
          <mxGeometry x="295" y="480" width="70" height="70" as="geometry" />
        </mxCell>
        <mxCell id="297EgKS4g4oYcpdyhydY-7" value="Ссылка создана&lt;br&gt;&lt;br&gt;(Обратно, Список ссылок)" style="whiteSpace=wrap;html=1;aspect=fixed;" vertex="1" parent="1">
          <mxGeometry x="280" y="570" width="100" height="100" as="geometry" />
        </mxCell>
        <mxCell id="297EgKS4g4oYcpdyhydY-16" style="edgeStyle=orthogonalEdgeStyle;rounded=0;orthogonalLoop=1;jettySize=auto;html=1;fontSize=24;" edge="1" parent="1" source="297EgKS4g4oYcpdyhydY-8" target="297EgKS4g4oYcpdyhydY-9">
          <mxGeometry relative="1" as="geometry" />
        </mxCell>
        <mxCell id="297EgKS4g4oYcpdyhydY-8" value="Отправка команды для удаления ссылки" style="whiteSpace=wrap;html=1;aspect=fixed;" vertex="1" parent="1">
          <mxGeometry x="125" y="500" width="80" height="80" as="geometry" />
        </mxCell>
        <mxCell id="297EgKS4g4oYcpdyhydY-9" value="Вы точно хотите удалить ссылку?&lt;br&gt;(если пользователь нажмет на &quot;Да&quot;, ссылка удалится)" style="whiteSpace=wrap;html=1;aspect=fixed;" vertex="1" parent="1">
          <mxGeometry x="110" y="600" width="110" height="110" as="geometry" />
        </mxCell>
        <mxCell id="297EgKS4g4oYcpdyhydY-17" value="Использование &lt;br&gt;реферальной ссылки" style="text;html=1;align=center;verticalAlign=middle;resizable=0;points=[];autosize=1;strokeColor=none;fillColor=none;strokeWidth=1;fontSize=24;" vertex="1" parent="1">
          <mxGeometry x="590" y="5" width="260" height="70" as="geometry" />
        </mxCell>
        <mxCell id="297EgKS4g4oYcpdyhydY-18" value="Структура ссылки:&lt;br&gt;https://t.me/bot?start=ref38fds93,&lt;br&gt;ref - это префикс любого id реф. ссылки" style="whiteSpace=wrap;html=1;aspect=fixed;" vertex="1" parent="1">
          <mxGeometry x="655" y="90" width="130" height="130" as="geometry" />
        </mxCell>
        <mxCell id="297EgKS4g4oYcpdyhydY-24" style="edgeStyle=orthogonalEdgeStyle;rounded=0;orthogonalLoop=1;jettySize=auto;html=1;entryX=0.5;entryY=0;entryDx=0;entryDy=0;fontSize=24;shape=link;" edge="1" parent="1" source="297EgKS4g4oYcpdyhydY-21" target="297EgKS4g4oYcpdyhydY-23">
          <mxGeometry relative="1" as="geometry" />
        </mxCell>
        <mxCell id="297EgKS4g4oYcpdyhydY-27" style="edgeStyle=orthogonalEdgeStyle;rounded=0;orthogonalLoop=1;jettySize=auto;html=1;fontSize=24;" edge="1" parent="1" source="297EgKS4g4oYcpdyhydY-21" target="297EgKS4g4oYcpdyhydY-22">
          <mxGeometry relative="1" as="geometry" />
        </mxCell>
        <mxCell id="297EgKS4g4oYcpdyhydY-21" value="Переход по ссылке" style="whiteSpace=wrap;html=1;aspect=fixed;" vertex="1" parent="1">
          <mxGeometry x="680" y="260" width="80" height="80" as="geometry" />
        </mxCell>
        <mxCell id="297EgKS4g4oYcpdyhydY-22" value="Пользователю отправляется главный экран" style="whiteSpace=wrap;html=1;aspect=fixed;" vertex="1" parent="1">
          <mxGeometry x="670" y="400" width="100" height="100" as="geometry" />
        </mxCell>
        <mxCell id="297EgKS4g4oYcpdyhydY-25" style="edgeStyle=orthogonalEdgeStyle;shape=link;rounded=0;orthogonalLoop=1;jettySize=auto;html=1;fontSize=24;exitX=0.465;exitY=0.998;exitDx=0;exitDy=0;exitPerimeter=0;" edge="1" parent="1" source="297EgKS4g4oYcpdyhydY-23" target="297EgKS4g4oYcpdyhydY-22">
          <mxGeometry relative="1" as="geometry" />
        </mxCell>
        <mxCell id="297EgKS4g4oYcpdyhydY-23" value="Данные перехода записываются в бд (асинхронно)" style="whiteSpace=wrap;html=1;aspect=fixed;" vertex="1" parent="1">
          <mxGeometry x="800" y="320" width="100" height="100" as="geometry" />
        </mxCell>
        <mxCell id="297EgKS4g4oYcpdyhydY-28" value="Таблицы в бд" style="text;html=1;align=center;verticalAlign=middle;resizable=0;points=[];autosize=1;strokeColor=none;fillColor=none;strokeWidth=1;fontSize=24;" vertex="1" parent="1">
          <mxGeometry x="675" y="670" width="170" height="40" as="geometry" />
        </mxCell>
        <mxCell id="297EgKS4g4oYcpdyhydY-39" style="edgeStyle=orthogonalEdgeStyle;rounded=0;orthogonalLoop=1;jettySize=auto;html=1;fontSize=24;" edge="1" parent="1" source="297EgKS4g4oYcpdyhydY-29" target="297EgKS4g4oYcpdyhydY-33">
          <mxGeometry relative="1" as="geometry" />
        </mxCell>
        <mxCell id="297EgKS4g4oYcpdyhydY-40" style="edgeStyle=orthogonalEdgeStyle;rounded=0;orthogonalLoop=1;jettySize=auto;html=1;fontSize=24;" edge="1" parent="1" source="297EgKS4g4oYcpdyhydY-29" target="297EgKS4g4oYcpdyhydY-32">
          <mxGeometry relative="1" as="geometry" />
        </mxCell>
        <mxCell id="297EgKS4g4oYcpdyhydY-29" value="referral_links&amp;nbsp;- Данные ссылок" style="whiteSpace=wrap;html=1;aspect=fixed;" vertex="1" parent="1">
          <mxGeometry x="580" y="750" width="100" height="100" as="geometry" />
        </mxCell>
        <mxCell id="297EgKS4g4oYcpdyhydY-36" style="edgeStyle=orthogonalEdgeStyle;rounded=0;orthogonalLoop=1;jettySize=auto;html=1;fontSize=24;" edge="1" parent="1" source="297EgKS4g4oYcpdyhydY-31" target="297EgKS4g4oYcpdyhydY-34">
          <mxGeometry relative="1" as="geometry" />
        </mxCell>
        <mxCell id="297EgKS4g4oYcpdyhydY-37" style="edgeStyle=orthogonalEdgeStyle;rounded=0;orthogonalLoop=1;jettySize=auto;html=1;fontSize=24;" edge="1" parent="1" source="297EgKS4g4oYcpdyhydY-31" target="297EgKS4g4oYcpdyhydY-35">
          <mxGeometry relative="1" as="geometry" />
        </mxCell>
        <mxCell id="297EgKS4g4oYcpdyhydY-31" value="clicks_on_referral_links&amp;nbsp;- Данные с переходами по ссылкам" style="whiteSpace=wrap;html=1;aspect=fixed;" vertex="1" parent="1">
          <mxGeometry x="800" y="750" width="160" height="160" as="geometry" />
        </mxCell>
        <mxCell id="297EgKS4g4oYcpdyhydY-32" value="Название" style="whiteSpace=wrap;html=1;aspect=fixed;" vertex="1" parent="1">
          <mxGeometry x="540" y="910" width="70" height="70" as="geometry" />
        </mxCell>
        <mxCell id="297EgKS4g4oYcpdyhydY-33" value="id&lt;br&gt;(id хранится без префикса ref. Он добавляется самим ботом при отображении ссылки и ее парсинге)" style="whiteSpace=wrap;html=1;aspect=fixed;" vertex="1" parent="1">
          <mxGeometry x="630" y="910" width="120" height="120" as="geometry" />
        </mxCell>
        <mxCell id="297EgKS4g4oYcpdyhydY-34" value="id ссылки" style="whiteSpace=wrap;html=1;aspect=fixed;" vertex="1" parent="1">
          <mxGeometry x="800" y="940" width="70" height="70" as="geometry" />
        </mxCell>
        <mxCell id="297EgKS4g4oYcpdyhydY-35" value="Время перехода" style="whiteSpace=wrap;html=1;aspect=fixed;" vertex="1" parent="1">
          <mxGeometry x="890" y="940" width="70" height="70" as="geometry" />
        </mxCell>
      </root>
    </mxGraphModel>
  </diagram>
</mxfile>
